<svg width="39" height="34" viewBox="0 0 39 34" fill="none" xmlns="http://www.w3.org/2000/svg">
<path d="M26.3116 20.9136C26.4328 21.1024 26.6083 21.2498 26.8106 21.347C28.3571 22.0893 29.4247 23.67 29.4247 25.5V28.3333C29.4247 28.9201 29.9004 29.3958 30.4872 29.3958C31.074 29.3958 31.5497 28.9201 31.5497 28.3333V25.5C31.5497 21.7836 28.537 18.7708 24.8205 18.7708V18.7708C24.6666 18.7708 24.5972 18.9695 24.7136 19.0702C25.3302 19.6039 25.8693 20.2247 26.3116 20.9136Z" fill="white"/>
<path fill-rule="evenodd" clip-rule="evenodd" d="M10.6538 20.8958C8.11104 20.8958 6.04968 22.9572 6.04968 25.5V28.3333C6.04968 28.9201 5.57399 29.3958 4.98718 29.3958C4.40038 29.3958 3.92468 28.9201 3.92468 28.3333V25.5C3.92468 21.7836 6.93743 18.7708 10.6538 18.7708H19.1538C22.8703 18.7708 25.883 21.7836 25.883 25.5V28.3333C25.883 28.9201 25.4073 29.3958 24.8205 29.3958C24.2337 29.3958 23.758 28.9201 23.758 28.3333V25.5C23.758 22.9572 21.6967 20.8958 19.1538 20.8958H10.6538Z" fill="white"/>
<path d="M21.8037 13.5398C21.9297 13.3002 22.13 13.1089 22.3633 12.9717C23.4098 12.3563 24.1122 11.2185 24.1122 9.91667C24.1122 8.61483 23.4098 7.47705 22.3633 6.86162C22.13 6.72441 21.9297 6.53311 21.8037 6.29358C21.4515 5.62431 21.0049 5.01254 20.4814 4.47601C20.3997 4.3922 20.4534 4.25 20.5705 4.25V4.25C23.7001 4.25 26.2372 6.78705 26.2372 9.91667C26.2372 13.0463 23.7001 15.5833 20.5705 15.5833V15.5833C20.4534 15.5833 20.3997 15.4411 20.4814 15.3573C21.0049 14.8208 21.4515 14.209 21.8037 13.5398Z" fill="white"/>
<path fill-rule="evenodd" clip-rule="evenodd" d="M14.9038 13.4583C16.8599 13.4583 18.4455 11.8727 18.4455 9.91667C18.4455 7.96066 16.8599 6.375 14.9038 6.375C12.9478 6.375 11.3622 7.96066 11.3622 9.91667C11.3622 11.8727 12.9478 13.4583 14.9038 13.4583ZM14.9038 15.5833C18.0335 15.5833 20.5705 13.0463 20.5705 9.91667C20.5705 6.78705 18.0335 4.25 14.9038 4.25C11.7742 4.25 9.23718 6.78705 9.23718 9.91667C9.23718 13.0463 11.7742 15.5833 14.9038 15.5833Z" fill="white"/>
</svg>
